<?xml version="1.0" encoding="UTF-8" standalone="no"?>
<!-- Created with Inkscape (http://www.inkscape.org/) -->

<svg
   width="50"
   height="50"
   viewBox="0 0 13.229167 13.229167"
   version="1.1"
   id="svg5"
   inkscape:version="1.1.1 (3bf5ae0d25, 2021-09-20)"
   sodipodi:docname="icon.svg"
   xmlns:inkscape="http://www.inkscape.org/namespaces/inkscape"
   xmlns:sodipodi="http://sodipodi.sourceforge.net/DTD/sodipodi-0.dtd"
   xmlns:xlink="http://www.w3.org/1999/xlink"
   xmlns="http://www.w3.org/2000/svg"
   xmlns:svg="http://www.w3.org/2000/svg">
  <sodipodi:namedview
     id="namedview7"
     pagecolor="#505050"
     bordercolor="#eeeeee"
     borderopacity="1"
     inkscape:pageshadow="0"
     inkscape:pageopacity="0"
     inkscape:pagecheckerboard="0"
     inkscape:document-units="mm"
     showgrid="false"
     inkscape:zoom="32"
     inkscape:cx="14.265625"
     inkscape:cy="47.265625"
     inkscape:window-width="1920"
     inkscape:window-height="1057"
     inkscape:window-x="1912"
     inkscape:window-y="-8"
     inkscape:window-maximized="1"
     inkscape:current-layer="layer1"
     units="px"
     width="50px" />
  <defs
     id="defs2">
    <linearGradient
       inkscape:collect="always"
       id="linearGradient41288">
      <stop
         style="stop-color:#3496d1;stop-opacity:1;"
         offset="0"
         id="stop41284" />
      <stop
         style="stop-color:#d488d1;stop-opacity:1"
         offset="1"
         id="stop41286" />
    </linearGradient>
    <linearGradient
       inkscape:collect="always"
       xlink:href="#linearGradient41288"
       id="linearGradient41208"
       x1="44.450001"
       y1="64.02916"
       x2="178.32916"
       y2="166.15834"
       gradientUnits="userSpaceOnUse"
       gradientTransform="matrix(0.0765249,0,0,0.0765249,19.754359,25.237231)" />
    <linearGradient
       inkscape:collect="always"
       xlink:href="#linearGradient41288"
       id="linearGradient41210"
       x1="44.450001"
       y1="64.02916"
       x2="178.32916"
       y2="166.15834"
       gradientUnits="userSpaceOnUse"
       gradientTransform="matrix(0.0765249,0,0,0.0765249,19.754359,25.237231)" />
    <linearGradient
       inkscape:collect="always"
       xlink:href="#linearGradient41288"
       id="linearGradient41212"
       x1="44.450001"
       y1="64.02916"
       x2="178.32916"
       y2="166.15834"
       gradientUnits="userSpaceOnUse"
       gradientTransform="matrix(0.0765249,0,0,0.0765249,19.754359,25.237231)" />
  </defs>
  <g
     inkscape:label="Layer 1"
     inkscape:groupmode="layer"
     id="layer1"
     transform="translate(-21.176446,-27.292729)">
    <path
       id="path872"
       style="fill:url(#linearGradient41208);fill-opacity:1;stroke-width:0.00500483"
       d="m 27.864752,27.326055 c -0.597742,0.0052 -1.193972,0.09134 -1.76487,0.256016 -0.640239,0.184677 -1.251369,0.468514 -1.807737,0.839587 -1.108755,0.739497 -1.968287,1.800753 -2.458018,3.034907 -0.24422,0.615447 -0.391391,1.254888 -0.441168,1.916843 -0.02413,0.320489 -0.0241,0.677207 8.4e-5,0.998479 0.05763,0.765956 0.248368,1.511522 0.565301,2.209637 0.05023,0.110653 0.174802,0.358005 0.233159,0.462956 0.597146,1.07391 1.482876,1.95961 2.557042,2.557003 0.104887,0.05834 0.352235,0.182932 0.462957,0.233198 0.772707,0.350797 1.58352,0.542245 2.454855,0.579696 0.0894,0.0039 0.445644,0.0028 0.538015,-0.0017 0.199543,-0.0096 0.390464,-0.02637 0.573013,-0.0505 0.04264,-0.0056 0.07805,-0.01078 0.07873,-0.01147 0.001,-10e-4 -1.336879,-2.148785 -1.341218,-2.153124 -8.27e-4,-8.27e-4 -0.04134,-0.006 -0.09001,-0.01159 -0.803696,-0.09168 -1.572173,-0.410418 -2.204023,-0.914094 -0.645524,-0.514572 -1.128981,-1.193703 -1.399945,-1.966627 -0.312826,-0.892329 -0.323806,-1.872479 -0.03108,-2.773196 0.166264,-0.5116 0.438441,-1.007917 0.776394,-1.415844 0.189787,-0.229079 0.417888,-0.453756 0.64538,-0.635651 0.658834,-0.526774 1.462508,-0.852408 2.297111,-0.930819 l 0.03503,-0.0033 0.66812,-1.043681 c 0.749592,-1.170949 0.702738,-1.097204 0.699081,-1.100863 -0.0069,-0.0069 -0.289296,-0.04087 -0.448838,-0.05398 -0.198696,-0.01633 -0.398093,-0.0236 -0.597333,-0.02187 z"
       sodipodi:nodetypes="ssssccssssssssscsssssccsssss" />
    <path
       id="path872-0-2"
       style="fill:url(#linearGradient41210);fill-opacity:1;stroke:none;stroke-width:0.165676;stroke-miterlimit:4;stroke-dasharray:none;stroke-opacity:1"
       d="m 29.431175,27.453067 c -0.328377,0.505491 -0.555424,0.856822 -0.822859,1.270712 l -0.819735,1.268853 h -0.04801 c -0.09608,0 -0.281677,0.01641 -0.430846,0.03785 -0.671126,0.09643 -1.314688,0.376708 -1.849297,0.805421 -0.635893,0.50993 -1.098233,1.214498 -1.308714,1.994427 -0.124135,0.459978 -0.162414,0.94414 -0.112387,1.421376 0.07842,0.748106 0.379555,1.464289 0.859122,2.043309 0.24114,0.291147 0.53445,0.554845 0.847258,0.761722 0.568614,0.376059 1.236782,0.597311 1.908852,0.632054 l 0.0721,0.0037 0.810166,1.258729 c 0.445591,0.692292 0.816993,1.26965 0.825311,1.283006 h -4e-5 c 0.01165,0.0187 0.01737,0.02368 0.02491,0.02171 0.0066,-0.0017 1.906097,-0.739356 1.934875,-0.751362 4.59e-4,-2.3e-4 -0.0789,-0.357293 -0.176333,-0.793598 -0.09743,-0.436297 -0.176588,-0.795766 -0.175977,-0.798813 6.13e-4,-0.003 0.03718,-0.0344 0.08122,-0.06964 0.278188,-0.222581 0.556093,-0.498695 0.778015,-0.77303 0.04421,-0.05466 0.06345,-0.07489 0.06948,-0.07312 0.06318,0.01851 1.579555,0.373079 1.582487,0.370026 0.0042,-0.0044 0.780661,-1.956666 0.780585,-1.962674 -3.3e-5,-0.0019 -0.301982,-0.203701 -0.670966,-0.448484 l -0.670847,-0.445082 0.0028,-0.01788 c 0.0048,-0.0303 0.02183,-0.208344 0.02875,-0.300662 0.0041,-0.05551 0.0065,-0.176496 0.0064,-0.330322 -1.53e-4,-0.243161 -0.0052,-0.350166 -0.02467,-0.526823 -0.0037,-0.03368 -0.0064,-0.06154 -0.006,-0.06192 3.83e-4,-3.82e-4 0.298046,-0.200511 0.661396,-0.444727 0.363351,-0.244216 0.663695,-0.446907 0.667407,-0.450419 0.0056,-0.0053 -0.059,-0.169636 -0.382601,-0.97341 -0.214131,-0.531872 -0.392038,-0.968094 -0.395374,-0.969373 -0.0034,-0.0013 -0.347869,0.08579 -0.765598,0.193494 -0.616404,0.158919 -0.760609,0.194561 -0.765361,0.189265 -0.0032,-0.0036 -0.02851,-0.0359 -0.0562,-0.07182 -0.211552,-0.27445 -0.487263,-0.559622 -0.763818,-0.789957 -0.0378,-0.03149 -0.07875,-0.06476 -0.09095,-0.07395 -0.01221,-0.0092 -0.02227,-0.01895 -0.02234,-0.02171 -7.7e-5,-0.0028 0.0721,-0.366219 0.160395,-0.807673 0.0883,-0.441456 0.158676,-0.804442 0.156402,-0.806646 -0.638377,-0.249341 -1.256122,-0.555087 -1.899047,-0.79257 z m -1.651254,3.362026 c 0.125836,-0.0015 0.303529,0.002 0.365596,0.0084 0.261388,0.02694 0.479036,0.07204 0.699675,0.145052 0.657217,0.217477 1.22768,0.652314 1.612382,1.22903 0.276478,0.414477 0.445753,0.877862 0.50278,1.376334 0.01512,0.132133 0.01919,0.232458 0.01641,0.40261 -0.0039,0.234859 -0.02173,0.392176 -0.06944,0.610858 -0.231157,1.05942 -1.009624,1.928604 -2.039749,2.277456 -0.268672,0.09098 -0.538053,0.142882 -0.828949,0.159725 -0.270628,0.01561 -0.564012,-0.0082 -0.834682,-0.06782 -0.848329,-0.186931 -1.577254,-0.719252 -2.021044,-1.475989 -0.11656,-0.198757 -0.225025,-0.450839 -0.292873,-0.680655 -0.298542,-1.011227 -0.06163,-2.111666 0.625489,-2.90559 0.55456,-0.64075 1.315115,-1.01933 2.162061,-1.076267 0.02422,-0.0016 0.0604,-0.0027 0.102343,-0.0031 z"
       sodipodi:nodetypes="cccscsssssscsccscsssscsscccscsssssssssssssccscsssssscsssssss" />
    <path
       style="fill:url(#linearGradient41212);fill-opacity:1;stroke:none;stroke-width:0.00500483"
       d="m 27.778005,36.069563 c -0.150586,-0.01078 -0.287131,-0.0425 -0.377533,-0.08767 -0.111113,-0.05552 -0.201614,-0.146025 -0.257138,-0.257137 -0.02002,-0.04006 -0.04713,-0.118854 -0.06015,-0.174839 -0.0257,-0.110458 -0.02728,-0.137554 -0.02951,-0.50674 l -0.0021,-0.346584 h -0.341219 c -0.357941,0 -0.412203,-0.0023 -0.524158,-0.02247 -0.281321,-0.05058 -0.452576,-0.200771 -0.522196,-0.457975 -0.05009,-0.185046 -0.05513,-0.463828 -0.0123,-0.680657 0.02847,-0.14412 0.08467,-0.256255 0.168671,-0.336507 0.06815,-0.06512 0.147178,-0.106045 0.259515,-0.134415 0.126855,-0.03204 0.249737,-0.03915 0.680882,-0.0394 l 0.291532,-2.29e-4 v -0.316807 c 0,-0.179436 0.0023,-0.345994 0.0053,-0.384122 0.01731,-0.217797 0.07716,-0.378708 0.181975,-0.489232 0.08744,-0.09221 0.206471,-0.152851 0.359957,-0.183403 0.09574,-0.01906 0.165966,-0.02472 0.301039,-0.02426 0.471645,0.0016 0.704083,0.135092 0.783636,0.45009 0.03267,0.129349 0.03943,0.239737 0.03956,0.645572 v 0.300919 l 0.361599,0.0028 c 0.363154,0.0028 0.415814,0.0051 0.524256,0.02334 0.215367,0.03624 0.351635,0.128214 0.434088,0.292981 0.05876,0.117411 0.0854,0.255286 0.08995,0.465448 0.0061,0.283399 -0.03055,0.459424 -0.126468,0.606783 -0.09483,0.145676 -0.24615,0.230154 -0.47973,0.267812 -0.06141,0.0099 -0.08846,0.01068 -0.43459,0.01247 l -0.369107,0.0019 v 0.291212 c 0,0.383359 -0.0069,0.496808 -0.03718,0.621888 -0.07102,0.293156 -0.267899,0.42992 -0.658423,0.457388 -0.067,0.0047 -0.196826,0.0057 -0.250241,0.0018 z"
       id="path872-0-6"
       sodipodi:nodetypes="csssscssssssccsssscsccssssssscssscc" />
  </g>
</svg>
